<svg
  version="1.1"
  width="16px"
  height="16px"
  viewBox="0 0 17.0 17.0"
  xmlns="http://www.w3.org/2000/svg"
>
  <title>Dashboard</title>
  <path
    d="M6.15786157,9.05754433 C6.91967956,9.05754433 7.53725506,9.67511983 7.53725506,10.4369378 L7.53725506,15.1206065 C7.53725506,15.8824245 6.91967956,16.5 6.15786157,16.5 L1.37939349,16.5 C0.6175755,16.5 0,15.8824245 0,15.1206065 L0,10.4369378 C0,9.67511983 0.6175755,9.05754433 1.37939349,9.05754433 Z M12.7313725,9.05754433 C13.145586,9.05754433 13.4813725,9.39333076 13.4813725,9.80754433 L13.481,12.028 L15.75,12.0287722 C16.1642136,12.0287722 16.5,12.3645586 16.5,12.7787722 C16.5,13.1929857 16.1642136,13.5287722 15.75,13.5287722 L13.481,13.528 L13.4813725,15.75 C13.4813725,16.1642136 13.145586,16.5 12.7313725,16.5 C12.3171589,16.5 11.9813725,16.1642136 11.9813725,15.75 L11.981,13.528 L9.71274494,13.5287722 C9.29853138,13.5287722 8.96274494,13.1929857 8.96274494,12.7787722 C8.96274494,12.3645586 9.29853138,12.0287722 9.71274494,12.0287722 L11.981,12.028 L11.9813725,9.80754433 C11.9813725,9.39333076 12.3171589,9.05754433 12.7313725,9.05754433 Z M6.037,10.557 L1.5,10.557 L1.5,14.999 L6.037,14.999 L6.037,10.557 Z M6.15786157,0 C6.91967956,0 7.53725506,0.6175755 7.53725506,1.37939349 L7.53725506,6.06306219 C7.53725506,6.82488017 6.91967956,7.44245567 6.15786157,7.44245567 L1.37939349,7.44245567 C0.6175755,7.44245567 0,6.82488017 0,6.06306219 L0,1.37939349 C0,0.6175755 0.6175755,0 1.37939349,0 Z M15.1206065,0 C15.8824245,0 16.5,0.6175755 16.5,1.37939349 L16.5,6.06306219 C16.5,6.82488017 15.8824245,7.44245567 15.1206065,7.44245567 L10.3421384,7.44245567 C9.58032044,7.44245567 8.96274494,6.82488017 8.96274494,6.06306219 L8.96274494,1.37939349 C8.96274494,0.6175755 9.58032044,0 10.3421384,0 Z M6.037,1.5 L1.5,1.5 L1.5,5.942 L6.037,5.942 L6.037,1.5 Z M15,1.5 L10.462,1.5 L10.462,5.942 L15,5.942 L15,1.5 Z"
  ></path>
</svg>
