<svg
  width="16px"
  height="16px"
  viewBox="0 0 18.0 19.0"
  version="1.1"
  xmlns="http://www.w3.org/2000/svg"
>
  <title>Leaves</title>
  <g
    id="EazyUpdates"
    stroke="none"
    stroke-width="1"
    fill="none"
    fill-rule="evenodd"
  >
    <g
      id="1:1-Meetings-Notes-Copy"
      transform="translate(-32.000000, -682.000000)"
    >
      <g id="Add-Leave" transform="translate(32.000000, 682.000000)">
        <rect id="Rectangle" x="0" y="0" width="20" height="20"></rect>
        <path
          d="M12.3859375,1 C12.8001511,1 13.1359375,1.33578644 13.1359375,1.75 L13.135,2.25 L13.625,2.25 C15.018988,2.25 16.1591899,3.33658703 16.2448356,4.70899087 L16.25,4.875 L16.2507672,10.4105209 C18.0734392,11.0744383 19.375,12.8227479 19.375,14.875 C19.375,17.4983136 17.2483136,19.625 14.625,19.625 C12.9727091,19.625 11.517435,18.7813233 10.6664755,17.5012679 L3.625,17.5 C2.17525253,17.5 1,16.3247475 1,14.875 L1,4.875 C1,3.42525253 2.17525253,2.25 3.625,2.25 L4.135,2.25 L4.1359375,1.75 C4.1359375,1.37030423 4.41809138,1.05650904 4.78416694,1.00684662 L4.8859375,1 C5.30015106,1 5.6359375,1.33578644 5.6359375,1.75 L5.635,2.25 L11.635,2.25 L11.6359375,1.75 C11.6359375,1.37030423 11.9180914,1.05650904 12.2841669,1.00684662 L12.3859375,1 Z M14.625,11.625 C12.8301136,11.625 11.375,13.0801136 11.375,14.875 C11.375,16.6698864 12.8301136,18.125 14.625,18.125 C16.4198864,18.125 17.875,16.6698864 17.875,14.875 C17.875,13.0801136 16.4198864,11.625 14.625,11.625 Z M14.625,12.715 C15.0392136,12.715 15.375,13.0507864 15.375,13.465 L15.375,14.174 L16.115,14.175 C16.4946958,14.175 16.808491,14.4571539 16.8581534,14.8232294 L16.865,14.925 C16.865,15.3392136 16.5292136,15.675 16.115,15.675 L15.375,15.674 L15.375,16.455 C15.375,16.8346958 15.0928461,17.148491 14.7267706,17.1981534 L14.625,17.205 C14.2107864,17.205 13.875,16.8692136 13.875,16.455 L13.875,15.674 L13.135,15.675 C12.7553042,15.675 12.441509,15.3928461 12.3918466,15.0267706 L12.385,14.925 C12.385,14.5107864 12.7207864,14.175 13.135,14.175 L13.875,14.174 L13.875,13.465 C13.875,13.0853042 14.1571539,12.771509 14.5232294,12.7218466 L14.625,12.715 Z M14.75,10.127 L14.75,8.51 L2.5,8.51 L2.5,14.875 C2.5,15.454899 2.93876095,15.9323199 3.50241886,15.9933987 L3.625,16 L10.0093222,16.0012474 C9.92153265,15.6402152 9.875,15.2630408 9.875,14.875 C9.875,12.2516864 12.0016864,10.125 14.625,10.125 L14.75,10.127 Z M4.135,3.75 L3.625,3.75 C3.04510101,3.75 2.56768014,4.18876095 2.50660135,4.75241886 L2.5,4.875 L2.5,7.01 L14.75,7.01 L14.75,4.875 C14.75,4.29510101 14.3112391,3.81768014 13.7475811,3.75660135 L13.625,3.75 L13.135,3.75 L13.1359375,4.25 C13.1359375,4.62969577 12.8537836,4.94349096 12.4877081,4.99315338 L12.3859375,5 C11.9717239,5 11.6359375,4.66421356 11.6359375,4.25 L11.635,3.75 L5.635,3.75 L5.6359375,4.25 C5.6359375,4.62969577 5.35378362,4.94349096 4.98770806,4.99315338 L4.8859375,5 C4.47172394,5 4.1359375,4.66421356 4.1359375,4.25 L4.135,3.75 Z"
          id="Combined-Shape"
          fill="#000000"
          fill-rule="nonzero"
        ></path>
      </g>
    </g>
  </g>
</svg>
