<svg
  version="1.1"
  width="16px"
  height="16px"
  viewBox="0 0 16.0 17.0"
  xmlns="http://www.w3.org/2000/svg"
>
  <path
    d="M11.3859375,0 C11.8001511,0 12.1359375,0.335786438 12.1359375,0.75 L12.135,1.25 L12.625,1.25 C14.018988,1.25 15.1591899,2.33658703 15.2448356,3.70899087 L15.25,3.875 L15.25,13.875 C15.25,15.3247475 14.0747475,16.5 12.625,16.5 L2.625,16.5 C1.17525253,16.5 0,15.3247475 0,13.875 L0,3.875 C0,2.42525253 1.17525253,1.25 2.625,1.25 L3.135,1.25 L3.1359375,0.75 C3.1359375,0.335786438 3.47172394,0 3.8859375,0 C4.30015106,0 4.6359375,0.335786438 4.6359375,0.75 L4.635,1.25 L10.635,1.25 L10.6359375,0.75 C10.6359375,0.335786438 10.9717239,0 11.3859375,0 Z M13.75,7.51 L1.5,7.51 L1.5,13.875 C1.5,14.454899 1.93876095,14.9323199 2.50241886,14.9933987 L2.625,15 L12.625,15 C13.2463203,15 13.75,14.4963203 13.75,13.875 L13.75,7.51 Z M3.135,2.75 L2.625,2.75 C2.00367966,2.75 1.5,3.25367966 1.5,3.875 L1.5,6.01 L13.75,6.01 L13.75,3.875 C13.75,3.29510101 13.3112391,2.81768014 12.7475811,2.75660135 L12.625,2.75 L12.135,2.75 L12.1359375,3.25 C12.1359375,3.66421356 11.8001511,4 11.3859375,4 C10.9717239,4 10.6359375,3.66421356 10.6359375,3.25 L10.635,2.75 L4.635,2.75 L4.6359375,3.25 C4.6359375,3.66421356 4.30015106,4 3.8859375,4 C3.47172394,4 3.1359375,3.66421356 3.1359375,3.25 L3.135,2.75 Z"
  ></path>
</svg>
