<svg
  version="1.1"
  width="16px"
  height="16px"
  viewBox="0 0 18.0 14.0"
  xmlns="http://www.w3.org/2000/svg"
>
  <title>My Assets</title>
  <path
    d="M14.5,0 C15.6045695,0 16.5,0.8954305 16.5,2 L16.5,9.375 L17,9.375 C17.3796958,9.375 17.693491,9.65715388 17.7431534,10.0232294 L17.75,10.125 L17.75,11.375 C17.75,12.4795695 16.8545695,13.375 15.75,13.375 L2,13.375 C0.8954305,13.375 0,12.4795695 0,11.375 L0,10.125 C0,9.71078644 0.335786438,9.375 0.75,9.375 L1.25,9.375 L1.25,2 C1.25,0.8954305 2.1454305,0 3.25,0 L14.5,0 Z M16.25,10.875 L1.5,10.875 L1.5,11.375 C1.5,11.6204599 1.67687516,11.8246084 1.91012437,11.8669443 L2,11.875 L15.75,11.875 C16.0261424,11.875 16.25,11.6511424 16.25,11.375 L16.25,10.875 Z M14.5,1.5 L3.25,1.5 C2.97385763,1.5 2.75,1.72385763 2.75,2 L2.75,9.375 L15,9.375 L15,2 C15,1.72385763 14.7761424,1.5 14.5,1.5 Z M10.125,2.5109375 C10.5392136,2.5109375 10.875,2.84672394 10.875,3.2609375 C10.875,3.67515106 10.5392136,4.0109375 10.125,4.0109375 L7.625,4.0109375 C7.21078644,4.0109375 6.875,3.67515106 6.875,3.2609375 C6.875,2.84672394 7.21078644,2.5109375 7.625,2.5109375 L10.125,2.5109375 Z"
  ></path>
</svg>
