<svg
  version="1.1"
  width="16px"
  height="16px"
  viewBox="0 0 17.0 16.0"
  xmlns="http://www.w3.org/2000/svg"
>
  <title>My Tasks</title>
  <path
    d="M9.37768488,9.03264836 C9.68761305,9.34995664 9.68163029,9.85843225 9.36432201,10.1683604 L4.03097416,15.3776627 C3.71893279,15.6824465 3.22066633,15.6824465 2.90862496,15.3776627 L0.241951037,12.7730116 C-0.0753572417,12.4630834 -0.0813399997,11.9546078 0.228588173,11.6372995 C0.538516346,11.3199912 1.04699195,11.3140085 1.36430023,11.6239367 L3.47012564,13.6801253 L8.24197281,9.0192855 C8.55928109,8.70935733 9.0677567,8.71534008 9.37768488,9.03264836 Z M15.1364572,0 C15.9440268,0 16.6062509,0.646821805 16.6062509,1.45428808 L16.6062509,13.8263811 C16.6062509,14.6338474 15.9440268,15.2806692 15.1364572,15.2806692 L9.43943331,15.2806692 C8.99587946,15.2806692 8.63630803,14.9210977 8.63630803,14.4775439 C8.63630803,14.03399 8.99587946,13.6744186 9.43943331,13.6744186 L15.0001256,13.6741253 L15.0001256,1.60612529 L2.60712564,1.60612529 L2.60621281,8.88346377 C2.60621281,9.2928981 2.29983241,9.63077344 1.90382985,9.68033157 L1.80308752,9.68658906 C1.35953368,9.68658906 0.999962238,9.32701762 0.999962238,8.88346377 L0.999962238,1.45428808 C0.999962238,0.646821805 1.66218637,0 2.46975601,0 L15.1364572,0 Z"
  ></path>
</svg>
