<svg
  version="1.1"
  width="16px"
  height="16px"
  viewBox="0 0 18.0 18.0"
  xmlns="http://www.w3.org/2000/svg"
>
  <title>My Timeline</title>
  <path
    d="M3.25,0 C3.66421356,0 4,0.335786438 4,0.75 L4.00066246,1.08712248 C5.43367864,1.42594459 6.5,2.71344595 6.5,4.25 C6.5,5.78655405 5.43367864,7.07405541 4.00066246,7.41287752 L4.00066246,11.0871225 C5.43367864,11.4259446 6.5,12.7134459 6.5,14.25 C6.5,15.793751 5.42366629,17.0861108 3.98050234,17.417576 C3.90482004,17.7513379 3.60644909,18 3.25,18 C2.89355091,18 2.59517996,17.7513379 2.51889305,17.4180197 C1.07633371,17.0861108 0,15.793751 0,14.25 C0,12.7130861 1.06682087,11.4253416 2.5003444,11.0868846 L2.5003444,7.41311541 C1.06682087,7.07465844 0,5.7869139 0,4.25 C0,2.7130861 1.06682087,1.42534156 2.5003444,1.08688459 L2.5,0.75 C2.5,0.335786438 2.83578644,0 3.25,0 Z M16.331516,12 C17.0218719,12 17.581516,12.5596441 17.581516,13.25 L17.581516,15.25 C17.581516,15.9403559 17.0218719,16.5 16.331516,16.5 L9.18635227,16.5 C8.49599633,16.5 7.93635227,15.9403559 7.93635227,15.25 L7.93635227,13.25 C7.93635227,12.5596441 8.49599633,12 9.18635227,12 Z M3.25,12.5 C2.28350169,12.5 1.5,13.2835017 1.5,14.25 C1.5,15.2164983 2.28350169,16 3.25,16 C4.21649831,16 5,15.2164983 5,14.25 C5,13.2835017 4.21649831,12.5 3.25,12.5 Z M16.082,13.5 L9.437,13.5 L9.437,15 L16.082,15 L16.082,13.5 Z M16.331516,2 C17.0218719,2 17.581516,2.55964406 17.581516,3.25 L17.581516,9.25 C17.581516,9.94035594 17.0218719,10.5 16.331516,10.5 L9.18635227,10.5 C8.49599633,10.5 7.93635227,9.94035594 7.93635227,9.25 L7.93635227,3.25 C7.93635227,2.55964406 8.49599633,2 9.18635227,2 Z M16.082,3.5 L9.437,3.5 L9.437,9 L16.082,9 L16.082,3.5 Z M3.25,2.5 C2.28350169,2.5 1.5,3.28350169 1.5,4.25 C1.5,5.21649831 2.28350169,6 3.25,6 C4.21649831,6 5,5.21649831 5,4.25 C5,3.28350169 4.21649831,2.5 3.25,2.5 Z"
  ></path>
</svg>
