<svg
  version="1.1"
  width="16px"
  height="16px"
  viewBox="0 0 18.0 19.0"
  xmlns="http://www.w3.org/2000/svg"
>
  <title>Organisation Chart</title>
  <path
    d="M10.1875,-9.56755312e-17 C10.9468915,-1.42174852e-16 11.5625,0.615608469 11.5625,1.375 L11.5625,4.5 C11.5625,5.25939153 10.9468915,5.875 10.1875,5.875 L9.32125696,5.874635 C9.3489771,5.95293285 9.3640625,6.03720473 9.3640625,6.125 L9.364,8.375 L11.4821429,8.375 C13.0592024,8.375 14.375,9.52632287 14.375,11 L14.375,11.625 L15.875,11.625 C16.5897214,11.625 17.177078,12.1703141 17.2437056,12.8675783 L17.25,13 L17.25,16.75 C17.25,17.5093915 16.6343915,18.125 15.875,18.125 L12.125,18.125 C11.3656085,18.125 10.75,17.5093915 10.75,16.75 L10.75,13 C10.75,12.2406085 11.3656085,11.625 12.125,11.625 L12.875,11.625 L12.875,11 C12.875,10.4026093 12.2720179,9.875 11.4821429,9.875 L5.76785714,9.875 C4.97798208,9.875 4.375,10.4026093 4.375,11 L4.375,11.625 L5.125,11.625 C5.83972144,11.625 6.42707795,12.1703141 6.49370564,12.8675783 L6.5,13 L6.5,16.75 C6.5,17.5093915 5.88439153,18.125 5.125,18.125 L1.375,18.125 C0.615608469,18.125 0,17.5093915 0,16.75 L0,13 C0,12.2406085 0.615608469,11.625 1.375,11.625 L2.875,11.625 L2.875,11 C2.875,9.52632287 4.19079756,8.375 5.76785714,8.375 L7.864,8.375 L7.8640625,6.125 C7.8640625,6.03720473 7.8791479,5.95293285 7.90686804,5.874635 L7.0625,5.875 C6.30310847,5.875 5.6875,5.25939153 5.6875,4.5 L5.6875,1.375 C5.6875,0.615608469 6.30310847,1.42174852e-16 7.0625,9.56755312e-17 L10.1875,-9.56755312e-17 Z M15.75,13.125 L12.25,13.125 L12.25,16.625 L15.75,16.625 L15.75,13.125 Z M5,13.125 L1.5,13.125 L1.5,16.625 L5,16.625 L5,13.125 Z M10.0625,1.5005 L7.1875,1.5005 L7.1875,4.3755 L10.0625,4.3755 L10.0625,1.5005 Z"
  ></path>
</svg>
